<?xml version="1.0" standalone="no"?>
<!DOCTYPE svg PUBLIC "-//W3C//DTD SVG 20010904//EN"
 "http://www.w3.org/TR/2001/REC-SVG-20010904/DTD/svg10.dtd">
<svg version="1.0" xmlns="http://www.w3.org/2000/svg"
 width="700.000000pt" height="700.000000pt" viewBox="0 0 700.000000 700.000000"
 preserveAspectRatio="xMidYMid meet">
<metadata>
Created by potrace 1.11, written by Peter Selinger 2001-2013
</metadata>
<g transform="translate(0.000000,700.000000) scale(0.100000,-0.100000)"
fill="#000000" stroke="none">
<path d="M4876 6831 c-6 -11 -3 -6531 3 -6532 21 -4 1704 -3 1710 1 4 3 7
1475 7 3272 l0 3266 -858 0 c-472 0 -860 -3 -862 -7z"/>
<path d="M1269 4601 c-1 -3 -2 -543 -3 -1198 -1 -789 2 -1193 9 -1194 42 -3
520 3 524 7 3 3 6 238 7 522 2 284 3 623 3 752 l2 235 110 -225 c217 -440 402
-817 464 -946 l63 -131 164 1 163 1 27 55 c16 30 84 172 154 315 117 244 273
557 385 775 49 94 88 154 89 135 8 -112 13 -496 14 -937 l1 -558 256 0 256 0
1 1188 c0 653 -4 1192 -8 1197 -5 6 -137 10 -359 10 l-352 0 -115 -245 c-64
-135 -126 -267 -139 -295 -23 -52 -66 -142 -155 -330 -28 -60 -70 -150 -93
-200 -23 -49 -60 -128 -83 -175 l-41 -84 -40 84 c-23 47 -75 156 -117 244 -42
87 -76 160 -76 162 0 2 -34 74 -75 160 -41 86 -75 157 -75 159 0 2 -31 68 -68
147 -38 78 -91 190 -117 248 -27 58 -50 106 -50 107 -1 2 -111 5 -245 8 -134
4 -297 8 -362 9 -65 2 -119 1 -119 -3z"/>
</g>
</svg>
