<?xml version="1.0" standalone="no"?>
<!DOCTYPE svg PUBLIC "-//W3C//DTD SVG 20010904//EN"
 "http://www.w3.org/TR/2001/REC-SVG-20010904/DTD/svg10.dtd">
<svg version="1.0" xmlns="http://www.w3.org/2000/svg"
 width="260.000000pt" height="260.000000pt" viewBox="0 0 260.000000 260.000000"
 preserveAspectRatio="xMidYMid meet">
<metadata>
Created by potrace 1.11, written by Peter Selinger 2001-2013
</metadata>
<g transform="translate(0.000000,260.000000) scale(0.100000,-0.100000)"
fill="#000000" stroke="none">
<path d="M1810 1325 l0 -1215 320 0 320 0 0 1215 0 1215 -320 0 -320 0 0
-1215z"/>
<path d="M470 1265 l0 -445 100 0 100 0 1 283 1 282 119 -242 119 -243 60 0
61 0 116 240 c64 132 120 240 125 240 4 0 8 -126 8 -280 l0 -280 95 0 95 0 0
445 0 445 -133 0 -134 0 -116 -247 -116 -247 -50 104 c-27 58 -79 168 -115
245 l-66 140 -135 3 -135 3 0 -446z"/>
</g>
</svg>
